PathFileType	4	(X/Y/Z)	C:/Users/opensim2020/Desktop/walking_exp_matlab/subject01_walking05_straight_01.trc																																																																																																																															
DataRate	CameraRate	NumFrames	NumMarkers	Units	OrigDataRate	OrigDataStartFrame	OrigNumFrames																																																																																																																											
100	100	7	43	mm	100	814	239																																																																																																																											
Frame#	Time	LFHD			RFHD			LBHD			RBHD			C7			T10			CLAV			STRN			RBAK			LSHO			LUPA			LELB			LFRM			LWRA			LWRB			LFIN			RSHO			RUPA			RELB			RFRM			RWRA			RWRB			RFIN			LASI			RASI			LPSI			RPSI			LTHI			LKNE			LTIB			LANK			LHEE			LTOE			RTHI			RKNE			RTIB			RANK			RHEE			RTOE			*39			*40			*41			*42		
		X1	Y1	Z1	X2	Y2	Z2	X3	Y3	Z3	X4	Y4	Z4	X5	Y5	Z5	X6	Y6	Z6	X7	Y7	Z7	X8	Y8	Z8	X9	Y9	Z9	X10	Y10	Z10	X11	Y11	Z11	X12	Y12	Z12	X13	Y13	Z13	X14	Y14	Z14	X15	Y15	Z15	X16	Y16	Z16	X17	Y17	Z17	X18	Y18	Z18	X19	Y19	Z19	X20	Y20	Z20	X21	Y21	Z21	X22	Y22	Z22	X23	Y23	Z23	X24	Y24	Z24	X25	Y25	Z25	X26	Y26	Z26	X27	Y27	Z27	X28	Y28	Z28	X29	Y29	Z29	X30	Y30	Z30	X31	Y31	Z31	X32	Y32	Z32	X33	Y33	Z33	X34	Y34	Z34	X35	Y35	Z35	X36	Y36	Z36	X37	Y37	Z37	X38	Y38	Z38	X39	Y39	Z39	X40	Y40	Z40	X41	Y41	Z41	X42	Y42	Z42	X43	Y43	Z43
																																																																																																																																		
60	0.59	-564.07355	1676.28613	-1121.10938	-556.56067	1689.21838	-1007.65942	-662.9729	1599.02368	-1114.39185	-657.55811	1610.37561	-994.03021	-670.4599	1432.88342	-1070.74304	-708.10986	1142.12158	-1057.71631	-526.18311	1366.18433	-1056.99878	-485.20709	1209.26782	-1054.36816	-730.56165	1242.75464	-992.47223	-575.34882	1389.86633	-1221.37402	-582.32776	1205.7644	-1308.6532	-570.08289	1053.6814	-1314.073	-495.45761	964.0144	-1332.97595	-381.54254	887.83148	-1310.49243	-429.86658	860.74939	-1332.64551	-360.15079	816.19537	-1342.78186	-599.5885	1398.23523	-910.13519	-674.72321	1203.69556	-812.026	-679.73431	1078.50574	-805.58472	-657.22302	960.82104	-771.36646	-576.56232	843.34521	-781.84729	-624.48779	844.45526	-748.65802	-587.19659	767.77246	-745.34424	-537.24316	927.61572	-1148.89404	-549.80334	942.51141	-933.29321	-725.61469	943.32861	-1104.29248	-730.85498	948.53705	-958.46454	-579.77924	593.13953	-1192.50403	-596.92224	459.78247	-1172.73621	-660.2406	280.79074	-1180.60242	-711.16309	68.55237	-1128.62122	-762.64563	41.4261	-1079.75525	-564.97076	31.37467	-1124.96033	-508.63644	625.87512	-855.65186	-461.08661	472.09082	-872.92651	-545.96021	315.4787	-874.96613	-608.05688	120.7996	-926.58618	-652.57373	90.00539	-987.10168	-487.86932	49.8957	-901.98376	-577.66833	1716.57446	-1031.55664	1973.20544	1023.99908	-3101.9646	2013.13049	1022.19257	-3138.33252	NaN	NaN	NaN
61	0.6	-556.08276	1676.06091	-1120.13452	-548.6203	1688.70898	-1006.78455	-654.92462	1598.7406	-1113.63281	-649.47681	1609.89807	-993.21667	-662.09473	1432.53149	-1070.21716	-700.09143	1141.87183	-1057.49854	-517.81427	1365.76257	-1056.40234	-477.10471	1208.81824	-1054.2229	-722.42102	1242.32068	-992.38391	-567.07727	1389.75842	-1220.94946	-573.38025	1205.8811	-1308.4209	-559.94922	1053.84216	-1314.46155	-483.51691	965.57697	-1333.38062	-367.91058	891.98804	-1311.09119	-415.74728	863.76526	-1333.02625	-345.11377	820.73108	-1343.38794	-591.17676	1397.47717	-909.65308	-667.12518	1203.06091	-811.90839	-672.59991	1078.01367	-805.61456	-650.78583	960.18054	-771.4353	-570.7923	842.28833	-781.65973	-619.2049	843.58862	-748.60974	-582.39673	766.83929	-745.14954	-529.93079	926.84851	-1148.87561	-541.71313	942.25336	-933.22894	-718.04199	942.97614	-1103.94531	-722.93524	948.24231	-958.06567	-575.72076	592.66162	-1192.40259	-594.40332	459.48334	-1173.00745	-658.80243	280.83472	-1180.76636	-710.98914	69.00946	-1128.66309	-762.8042	42.13769	-1079.84021	-564.91309	31.34507	-1124.98108	-499.86432	625.87317	-855.33533	-452.06256	472.16345	-873.10846	-528.61298	311.47	-873.2561	-579.72382	113.24097	-923.57098	-623.48785	80.46078	-983.60541	-455.94095	48.8461	-899.95233	-569.6521	1716.23743	-1030.59924	1972.83289	1024.62207	-3102.61523	2013.13452	1022.3595	-3138.49731	NaN	NaN	NaN
62	0.61	-548.0769	1675.72766	-1119.13428	-540.55487	1688.3999	-1005.61908	-646.83228	1598.36255	-1112.73328	-641.46039	1609.34204	-992.32635	-654.13434	1432.25623	-1069.69006	-691.99817	1141.52332	-1057.22632	-509.50473	1365.25	-1055.93066	-468.93982	1208.29236	-1053.99878	-714.32452	1241.79285	-992.29114	-558.75397	1389.61389	-1220.37866	-564.38892	1205.96082	-1308.146	-549.77478	1053.98462	-1314.77393	-471.68488	967.11005	-1333.74719	-354.55872	895.99835	-1311.48657	-401.82034	866.70227	-1333.22217	-330.41257	825.12543	-1343.76978	-583.32318	1396.85461	-909.13489	-659.3717	1202.38843	-811.77301	-665.4306	1077.42615	-805.5813	-644.19769	959.47894	-771.38086	-564.91504	841.17944	-781.45123	-613.33038	842.7865	-748.65601	-576.64453	765.82471	-744.84576	-522.59802	925.98413	-1148.84326	-533.46033	941.86761	-933.12225	-710.51801	942.61182	-1103.43555	-714.93018	947.87848	-957.58893	-571.54114	592.27472	-1192.32703	-591.75653	459.07309	-1173.08679	-657.05566	280.87567	-1180.83813	-710.76404	69.48001	-1128.63586	-762.59442	42.77417	-1079.8949	-564.89703	31.2536	-1124.90979	-491.79214	625.34515	-855.25781	-443.52097	471.81134	-873.65619	-511.88443	308.09906	-871.65436	-551.65082	106.32237	-920.422	-594.0274	71.30668	-979.82904	-423.88068	48.82937	-897.98743	-561.73981	1715.79993	-1029.51013	1973.09277	1024.10107	-3102.15649	2013.09192	1022.21509	-3138.41968	NaN	NaN	NaN
63	0.62	-540.08313	1675.37903	-1118.08911	-532.59106	1687.86035	-1004.53131	-638.70892	1597.89563	-1111.82312	-633.65399	1608.83887	-991.50983	-645.53748	1431.64624	-1069.02673	-683.91498	1141.11987	-1056.73438	-501.33218	1364.66455	-1054.90015	-460.75668	1207.7146	-1053.72681	-706.02985	1241.24487	-992.04083	-550.42908	1389.34863	-1219.69946	-555.39728	1205.98828	-1307.82007	-539.73047	1054.13098	-1315.06128	-459.93253	968.60168	-1333.92603	-341.34613	899.78033	-1311.61133	-388.13022	869.64075	-1333.29565	-315.79434	829.80896	-1344.17261	-574.85315	1396.18787	-908.52087	-651.61731	1201.70703	-811.49188	-658.1275	1076.73413	-805.48285	-637.56683	958.77429	-771.31543	-558.88641	840.04004	-781.20563	-607.00342	841.89221	-748.44769	-571.06067	764.85291	-744.54547	-515.34692	925.1377	-1148.79907	-525.17792	941.38818	-932.96576	-702.95215	942.21307	-1102.78662	-706.67908	947.60828	-956.94647	-567.27795	591.86517	-1192.08679	-588.77423	458.82047	-1173.23181	-655.17279	281.03574	-1180.81848	-710.50275	69.97849	-1128.58459	-762.50031	43.44082	-1079.71985	-564.90265	31.22917	-1124.9386	-484.55267	624.43823	-855.1333	-435.53177	471.7258	-873.70844	-495.47189	305.319	-869.91217	-523.34149	100.28124	-916.84943	-564.17377	62.56494	-975.42767	-392.01489	49.71356	-896.00623	-553.78381	1715.29211	-1028.39563	1973.04553	1023.98022	-3102.33105	2013.06897	1022.24597	-3138.66138	NaN	NaN	NaN
64	0.63	-532.08221	1674.91602	-1116.9209	-524.77991	1687.1925	-1003.42432	-630.61462	1597.31311	-1110.78784	-625.37024	1607.96167	-990.35406	-637.26135	1431.07092	-1068.24561	-675.83331	1140.62573	-1056.04919	-492.92276	1364.12585	-1054.68079	-452.56647	1207.06348	-1053.38733	-697.72711	1240.56726	-991.6416	-542.06659	1389.04773	-1218.86646	-546.38116	1205.96045	-1307.42969	-529.65582	1054.23499	-1315.22925	-448.34186	970.04401	-1334.04114	-328.38882	903.60126	-1311.64526	-374.68188	872.44318	-1333.25171	-301.4989	834.35309	-1344.53223	-566.53442	1395.36548	-907.79248	-643.87939	1200.96094	-811.11761	-650.75403	1076.08057	-805.27362	-630.80621	957.98865	-771.12848	-552.67926	838.89349	-780.92462	-601.08008	841.00061	-748.25098	-565.26868	763.76642	-744.26331	-507.93448	924.35565	-1148.71143	-516.74591	940.77368	-932.7702	-695.2785	941.84717	-1101.9126	-698.53235	947.22888	-956.18066	-562.75787	591.62842	-1191.92261	-585.66754	458.4711	-1173.15088	-653.2785	281.23822	-1180.79968	-710.12329	70.40636	-1128.55481	-762.35382	44.33942	-1079.66736	-564.7951	31.18885	-1124.91418	-478.13428	623.10822	-854.99658	-427.57114	471.21674	-874.73236	-479.8031	302.82294	-868.28857	-495.03046	95.13583	-913.18085	-534.66254	55.04728	-970.75568	-360.73682	51.92047	-893.97314	-546.01288	1714.69946	-1027.32874	1972.78442	1024.45313	-3102.92822	2013.13916	1022.28467	-3138.24634	NaN	NaN	NaN
65	0.64	-524.08008	1674.41565	-1115.68762	-516.82025	1686.52905	-1002.21661	-622.49023	1596.64868	-1109.66638	-617.2558	1607.08606	-989.15259	-629.07916	1430.56091	-1067.42419	-667.75708	1140.11987	-1055.23718	-484.5607	1363.46655	-1053.93628	-444.36942	1206.36865	-1052.99585	-689.3963	1239.87329	-991.13068	-533.69861	1388.70154	-1218.10315	-537.34711	1205.87854	-1306.9823	-519.68286	1054.24963	-1315.31482	-436.89011	971.41559	-1334.02942	-315.76697	907.28497	-1311.59326	-361.47336	875.21289	-1333.22546	-287.61963	838.48358	-1344.45349	-558.43622	1394.48108	-906.88934	-636.1344	1200.11926	-810.64703	-643.38855	1075.35925	-804.99072	-623.95367	957.21436	-770.85938	-546.41461	837.70404	-780.59119	-595.31696	840.07098	-747.95074	-559.69354	762.72559	-743.94147	-500.5437	923.67303	-1148.58984	-508.10123	940.16064	-932.63458	-687.6347	941.49609	-1100.84766	-690.0957	946.85822	-955.1712	-558.03656	591.30927	-1191.60291	-582.4173	458.29767	-1173.13403	-651.38287	281.52927	-1180.67944	-709.6839	71.11282	-1128.60217	-762.24048	45.35248	-1079.72339	-564.75781	31.13597	-1124.87378	-471.94736	621.4613	-854.91418	-419.92972	470.51108	-875.53589	-464.52731	300.49219	-866.79169	-467.45758	91.3025	-909.22504	-505.7735	48.7472	-965.99207	-330.58707	55.131	-891.8905	-538.04956	1714.0249	-1025.87292	1973.18213	1024.0249	-3102.01538	2013.11768	1022.23236	-3138.35815	NaN	NaN	NaN
66	0.65	-516.11115	1673.88416	-1114.39307	-508.77136	1685.9436	-1000.77557	-614.33569	1595.9447	-1108.49377	-609.23602	1606.33301	-987.96533	-620.73651	1429.95337	-1066.44556	-659.67072	1139.58765	-1054.23145	-476.35217	1362.8092	-1052.66174	-436.1629	1205.59521	-1052.5874	-681.05682	1239.1156	-990.34106	-525.36285	1388.28271	-1217.26379	-528.32788	1205.75586	-1306.48877	-509.841	1054.16492	-1315.25964	-425.60788	972.69452	-1333.95459	-303.54938	910.88257	-1311.56335	-348.4787	877.91968	-1333.08289	-273.92834	842.58319	-1344.39063	-550.36536	1393.73706	-905.97998	-628.31384	1199.26611	-810.10791	-635.94482	1074.5675	-804.6214	-617.06061	956.3064	-770.56921	-540.08612	836.53168	-780.15045	-588.3587	838.94775	-747.65253	-553.53625	761.6344	-743.54797	-493.17877	923.00195	-1148.53357	-499.38992	939.37537	-932.44513	-679.89795	941.03387	-1099.58911	-681.56018	946.38916	-953.95239	-553.04285	591.0545	-1191.31836	-579.10565	458.00281	-1173.00146	-649.51996	281.89874	-1180.62305	-709.26544	72.0298	-1128.50085	-762.14941	46.51922	-1079.55579	-564.76233	31.17835	-1124.94299	-466.43872	619.49597	-854.84943	-412.37048	469.95642	-876.04651	-449.03461	298.39386	-865.53046	-440.45813	88.62061	-905.64227	-477.5531	43.93848	-961.18976	-301.44891	59.13662	-889.83356	-530.10358	1713.37256	-1024.5061	1973.20691	1024.01843	-3101.95947	2013.07031	1022.32428	-3138.4021	NaN	NaN	NaN
